<svg width="329" height="156" viewBox="0 0 329 156" xmlns="http://www.w3.org/2000/svg" xmlns:xlink="http://www.w3.org/1999/xlink">
    <defs>
        <path d="M26.422 68.543c-5.106 0-9.59-.99-13.45-2.968-3.862-1.978-6.861-4.786-9-8.424C1.836 53.513.767 49.301.767 44.515V23.837c0-4.723 1.069-8.887 3.207-12.493S9.11 4.946 12.97 2.968C16.833.989 21.316 0 26.421 0c5.106 0 9.59.941 13.45 2.824 3.862 1.883 6.861 4.531 9 7.946 2.137 3.414 3.206 7.355 3.206 11.822 0 .32-.111.575-.335.766a1.208 1.208 0 0 1-.813.287l-13.594.862c-.766 0-1.149-.351-1.149-1.053 0-3-.893-5.393-2.68-7.18-1.787-1.787-4.149-2.68-7.084-2.68-2.936 0-5.298.91-7.084 2.728-1.787 1.819-2.68 4.196-2.68 7.132v21.73c0 2.936.893 5.298 2.68 7.085 1.786 1.787 4.148 2.68 7.084 2.68 2.935 0 5.297-.893 7.084-2.68 1.787-1.787 2.68-4.149 2.68-7.084 0-.702.383-1.053 1.149-1.053l13.594.67c.319 0 .59.096.813.287.224.191.335.415.335.67 0 4.531-1.069 8.52-3.207 11.966-2.138 3.447-5.137 6.111-8.998 7.994-3.861 1.883-8.345 2.824-13.45 2.824z" id="cpiojk9xea"/>
        <path d="M85.104 68.83c-5.17 0-9.716-1.037-13.641-3.111-3.925-2.074-6.973-4.994-9.143-8.76-2.17-3.765-3.254-8.137-3.254-13.115V24.698c0-4.85 1.085-9.142 3.254-12.875 2.17-3.734 5.218-6.638 9.143-8.712C75.388 1.037 79.935 0 85.104 0c5.17 0 9.733 1.037 13.69 3.111 3.957 2.074 7.02 4.978 9.19 8.712 2.17 3.733 3.255 8.025 3.255 12.875v19.146c0 4.978-1.085 9.35-3.255 13.116-2.17 3.765-5.233 6.685-9.19 8.759-3.957 2.074-8.52 3.111-13.69 3.111zm0-13.594c3.064 0 5.537-.989 7.42-2.967 1.882-1.979 2.823-4.627 2.823-7.946V24.507c0-3.255-.94-5.887-2.824-7.898-1.882-2.01-4.355-3.015-7.419-3.015-3 0-5.44 1.005-7.323 3.015-1.883 2.01-2.824 4.643-2.824 7.898v19.816c0 3.319.941 5.967 2.824 7.946 1.883 1.978 4.324 2.967 7.323 2.967z" id="gllyr4sogb"/>
        <path d="M162.55 1.532c.255-.51.702-.766 1.34-.766h13.498c.32 0 .59.112.814.335.223.223.335.495.335.814v64.713c0 .32-.112.59-.335.814a1.108 1.108 0 0 1-.814.335h-13.593c-.32 0-.59-.112-.814-.335a1.108 1.108 0 0 1-.335-.814V28.145c0-.256-.064-.383-.192-.383-.127 0-.255.096-.383.287l-8.232 13.21c-.256.511-.702.767-1.34.767h-6.797c-.639 0-1.085-.256-1.34-.766l-8.33-13.307c-.127-.191-.254-.287-.382-.287s-.192.128-.192.383v38.58c0 .318-.111.59-.335.813a1.108 1.108 0 0 1-.813.335h-13.594c-.32 0-.59-.112-.814-.335a1.108 1.108 0 0 1-.335-.814V1.915c0-.32.112-.59.335-.814.224-.223.495-.335.814-.335h13.498c.574 0 1.021.255 1.34.766L148.861 22.4c.191.383.383.383.574 0L162.55 1.53z" id="2yn0blkdxc"/>
        <path d="M189.067 67.777c-.319 0-.59-.112-.813-.335a1.108 1.108 0 0 1-.335-.814V1.915c0-.32.111-.59.335-.814.223-.223.494-.335.813-.335h13.594c.32 0 .59.112.814.335.223.223.335.495.335.814v64.713c0 .32-.112.59-.335.814a1.108 1.108 0 0 1-.814.335h-13.594z" id="ljyvng405d"/>
        <path d="M251.292 1.915c0-.32.112-.59.335-.814.224-.223.495-.335.814-.335h13.594c.319 0 .59.112.813.335.224.223.335.495.335.814v64.713c0 .32-.111.59-.335.814a1.108 1.108 0 0 1-.813.335h-13.02c-.638 0-1.085-.255-1.34-.766l-22.018-36.569c-.128-.191-.255-.271-.383-.24-.127.033-.191.176-.191.432l.095 35.994c0 .32-.111.59-.335.814a1.108 1.108 0 0 1-.813.335h-13.594c-.32 0-.59-.112-.814-.335a1.108 1.108 0 0 1-.335-.814V1.915c0-.32.112-.59.335-.814.224-.223.495-.335.814-.335h13.115c.638 0 1.085.255 1.34.766l21.922 36.473c.128.191.256.271.383.24.128-.033.192-.176.192-.432l-.096-35.898z" id="440y35v0ze"/>
        <path d="M301.263 68.543c-5.105 0-9.589-1.021-13.45-3.063-3.86-2.043-6.86-4.915-8.998-8.616-2.138-3.702-3.207-7.978-3.207-12.828V24.411c0-4.85 1.069-9.11 3.207-12.78s5.137-6.525 8.998-8.568C291.674 1.021 296.158 0 301.263 0c5.042 0 9.51.973 13.403 2.92 3.893 1.946 6.908 4.61 9.046 7.993 2.138 3.383 3.207 7.116 3.207 11.2v.48c0 .318-.112.59-.335.813a1.108 1.108 0 0 1-.814.335h-13.593c-.32 0-.59-.112-.814-.335a1.108 1.108 0 0 1-.335-.814c0-2.489-.878-4.61-2.633-6.366-1.755-1.755-4.132-2.632-7.132-2.632-2.935 0-5.297.957-7.084 2.872-1.787 1.914-2.68 4.403-2.68 7.467v20.582c0 3.063.99 5.552 2.968 7.467 1.978 1.914 4.467 2.871 7.466 2.871 2.809 0 5.074-.75 6.797-2.25 1.723-1.499 2.585-3.59 2.585-6.27v-2.68c0-.32-.16-.479-.479-.479h-9.573c-.319 0-.59-.111-.813-.335a1.108 1.108 0 0 1-.335-.813v-10.53c0-.32.111-.591.335-.814.223-.224.494-.335.813-.335h24.507c.32 0 .59.111.814.335.223.223.335.494.335.813v13.02c0 4.786-1.069 8.998-3.207 12.636s-5.137 6.446-8.999 8.424c-3.86 1.979-8.344 2.968-13.45 2.968z" id="80d7glwdxf"/>
        <path d="M26.134 153.637c-5.297 0-9.908-.846-13.833-2.537-3.925-1.692-6.956-4.117-9.094-7.276C1.069 140.665 0 137.011 0 132.864v-1.82c0-.319.112-.59.335-.814.223-.223.495-.335.814-.335h13.306c.32 0 .59.112.814.335.223.224.335.495.335.814v1.149c0 2.106 1.053 3.94 3.16 5.504 2.105 1.564 4.945 2.346 8.52 2.346 2.807 0 4.881-.606 6.222-1.819 1.34-1.213 2.01-2.617 2.01-4.212 0-1.277-.399-2.314-1.197-3.111-.797-.798-1.866-1.468-3.207-2.01-1.34-.543-3.414-1.293-6.222-2.25a5.612 5.612 0 0 0-1.149-.431 8.18 8.18 0 0 1-1.053-.335c-4.148-1.34-7.754-2.792-10.817-4.356-3.064-1.564-5.68-3.733-7.85-6.51-2.17-2.776-3.255-6.206-3.255-10.29 0-3.958 1.037-7.42 3.111-10.387 2.074-2.968 4.962-5.25 8.664-6.845 3.701-1.596 7.881-2.393 12.54-2.393 4.915 0 9.334.893 13.259 2.68 3.925 1.787 7.004 4.308 9.238 7.563s3.35 6.988 3.35 11.2v1.34c0 .32-.111.59-.335.814a1.108 1.108 0 0 1-.813.335H36.473c-.319 0-.59-.111-.813-.335a1.108 1.108 0 0 1-.336-.814v-.67c0-2.233-.989-4.212-2.967-5.935-1.979-1.723-4.627-2.585-7.946-2.585-2.489 0-4.435.51-5.84 1.532-1.403 1.021-2.105 2.457-2.105 4.308 0 1.404.446 2.569 1.34 3.494.893.925 2.281 1.787 4.164 2.585 1.883.798 4.77 1.835 8.664 3.111 4.467 1.532 7.945 2.872 10.434 4.02 2.49 1.15 4.835 3.016 7.036 5.6 2.202 2.586 3.303 5.984 3.303 10.196 0 4.148-1.053 7.722-3.159 10.722-2.106 3-5.058 5.313-8.855 6.94-3.797 1.628-8.217 2.442-13.259 2.442z" id="d229zz8q5g"/>
        <path d="M84.147 153.924c-5.17 0-9.717-1.037-13.642-3.111-3.925-2.075-6.972-4.994-9.142-8.76-2.17-3.765-3.255-8.137-3.255-13.115v-19.146c0-4.85 1.085-9.142 3.255-12.876 2.17-3.733 5.217-6.637 9.142-8.711 3.925-2.074 8.473-3.111 13.642-3.111 5.17 0 9.733 1.037 13.69 3.11 3.956 2.075 7.02 4.979 9.19 8.712 2.17 3.734 3.254 8.026 3.254 12.876v19.146c0 4.978-1.085 9.35-3.254 13.115-2.17 3.766-5.234 6.685-9.19 8.76-3.957 2.074-8.52 3.11-13.69 3.11zm0-13.594c3.063 0 5.536-.99 7.42-2.968 1.882-1.978 2.823-4.627 2.823-7.945V109.6c0-3.255-.941-5.888-2.824-7.898s-4.356-3.016-7.419-3.016c-3 0-5.44 1.006-7.323 3.016S74 106.346 74 109.6v19.816c0 3.318.94 5.967 2.824 7.945 1.882 1.979 4.323 2.968 7.323 2.968z" id="s1tjt7kq8h"/>
        <path d="M143.596 153.924c-5.17 0-9.717-1.037-13.642-3.111-3.925-2.075-6.972-4.994-9.142-8.76-2.17-3.765-3.255-8.137-3.255-13.115v-19.146c0-4.85 1.085-9.142 3.255-12.876 2.17-3.733 5.217-6.637 9.142-8.711 3.925-2.074 8.472-3.111 13.642-3.111 5.169 0 9.732 1.037 13.689 3.11 3.957 2.075 7.02 4.979 9.19 8.712 2.17 3.734 3.255 8.026 3.255 12.876v19.146c0 4.978-1.085 9.35-3.255 13.115-2.17 3.766-5.233 6.685-9.19 8.76-3.957 2.074-8.52 3.11-13.69 3.11zm0-13.594c3.063 0 5.536-.99 7.419-2.968 1.882-1.978 2.824-4.627 2.824-7.945V109.6c0-3.255-.942-5.888-2.824-7.898-1.883-2.01-4.356-3.016-7.42-3.016-2.999 0-5.44 1.006-7.323 3.016s-2.824 4.643-2.824 7.898v19.816c0 3.318.941 5.967 2.824 7.945 1.883 1.979 4.324 2.968 7.324 2.968z" id="58spbi4r4i"/>
        <path d="M216.063 87.008c0-.319.112-.59.335-.813.224-.224.495-.336.814-.336h13.594c.319 0 .59.112.814.336.223.223.335.494.335.813v64.714c0 .319-.112.59-.335.814a1.108 1.108 0 0 1-.814.335h-13.02c-.638 0-1.084-.256-1.34-.766l-22.018-36.57c-.127-.19-.255-.27-.383-.238-.127.031-.191.175-.191.43l.096 35.995c0 .319-.112.59-.335.814a1.108 1.108 0 0 1-.814.335h-13.594c-.319 0-.59-.112-.814-.335a1.108 1.108 0 0 1-.335-.814V87.008c0-.319.112-.59.335-.813.224-.224.495-.336.814-.336h13.115c.638 0 1.085.256 1.34.766l21.923 36.474c.127.191.255.27.383.239.127-.032.191-.176.191-.43l-.096-35.9z" id="nvayj172ej"/>
    </defs>
    <g fill-rule="nonzero" fill="none">
        <g transform="translate(1 1)">
            <use fill="#FFF" xlink:href="#cpiojk9xea"/>
            <use stroke="#F1D961" stroke-width=".92" fill="#000" xlink:href="#cpiojk9xea"/>
        </g>
        <g transform="translate(1 1)">
            <use fill="#FFF" xlink:href="#gllyr4sogb"/>
            <use stroke="#F1D961" stroke-width=".92" fill="#000" xlink:href="#gllyr4sogb"/>
        </g>
        <g transform="translate(1 1)">
            <use fill="#FFF" xlink:href="#2yn0blkdxc"/>
            <use stroke="#F1D961" stroke-width=".92" fill="#000" xlink:href="#2yn0blkdxc"/>
        </g>
        <g transform="translate(1 1)">
            <use fill="#FFF" xlink:href="#ljyvng405d"/>
            <use stroke="#F1D961" stroke-width=".92" fill="#000" xlink:href="#ljyvng405d"/>
        </g>
        <g transform="translate(1 1)">
            <use fill="#FFF" xlink:href="#440y35v0ze"/>
            <use stroke="#F1D961" stroke-width=".92" fill="#000" xlink:href="#440y35v0ze"/>
        </g>
        <g transform="translate(1 1)">
            <use fill="#FFF" xlink:href="#80d7glwdxf"/>
            <use stroke="#F1D961" stroke-width=".92" fill="#000" xlink:href="#80d7glwdxf"/>
        </g>
        <g transform="translate(1 1)">
            <use fill="#FFF" xlink:href="#d229zz8q5g"/>
            <use stroke="#F1D961" stroke-width=".92" fill="#000" xlink:href="#d229zz8q5g"/>
        </g>
        <g transform="translate(1 1)">
            <use fill="#FFF" xlink:href="#s1tjt7kq8h"/>
            <use stroke="#F1D961" stroke-width=".92" fill="#000" xlink:href="#s1tjt7kq8h"/>
        </g>
        <g transform="translate(1 1)">
            <use fill="#FFF" xlink:href="#58spbi4r4i"/>
            <use stroke="#F1D961" stroke-width=".92" fill="#000" xlink:href="#58spbi4r4i"/>
        </g>
        <g transform="translate(1 1)">
            <use fill="#FFF" xlink:href="#nvayj172ej"/>
            <use stroke="#F1D961" stroke-width=".92" fill="#000" xlink:href="#nvayj172ej"/>
        </g>
        <g fill="#FFF">
            <path d="M248.51 115.55c-.266 0-.399-.133-.399-.399V88.028c0-.266.133-.4.399-.4h9.254c2.553 0 4.574.672 6.063 2.015 1.489 1.343 2.234 3.171 2.234 5.485v12.923c0 2.314-.745 4.142-2.234 5.485-1.49 1.343-3.51 2.014-6.063 2.014h-9.254zm1.715-2.034c0 .106.053.16.16.16h7.499c1.861 0 3.33-.526 4.407-1.576s1.629-2.48 1.656-4.288V95.367c0-1.808-.539-3.238-1.616-4.288-1.077-1.05-2.56-1.576-4.447-1.576h-7.5c-.106 0-.159.054-.159.16v23.853zM290.552 89.105c0 .265-.133.398-.4.398h-15.117c-.106 0-.16.054-.16.16v10.77c0 .106.054.16.16.16h10.73c.266 0 .399.132.399.398v1.077c0 .266-.133.399-.399.399h-10.73c-.106 0-.16.053-.16.16v10.889c0 .106.054.16.16.16h15.118c.266 0 .399.132.399.398v1.077c0 .266-.133.4-.4.4h-16.991c-.266 0-.4-.134-.4-.4V88.028c0-.266.134-.4.4-.4h16.992c.266 0 .399.134.399.4v1.077zM305.35 115.909c-1.808 0-3.404-.359-4.787-1.077-1.382-.718-2.453-1.735-3.21-3.051-.758-1.317-1.137-2.826-1.137-4.528V95.885c0-1.701.379-3.197 1.136-4.487.758-1.29 1.829-2.293 3.211-3.011 1.383-.718 2.979-1.077 4.787-1.077 1.782 0 3.364.352 4.747 1.057 1.382.704 2.453 1.695 3.21 2.971.758 1.277 1.137 2.753 1.137 4.428v.04c0 .133-.04.239-.12.319a.383.383 0 0 1-.279.12l-1.316.08c-.266 0-.399-.134-.399-.4v-.12c0-1.994-.638-3.596-1.914-4.806-1.277-1.21-2.965-1.815-5.066-1.815-2.127 0-3.83.605-5.106 1.815-1.276 1.21-1.914 2.812-1.914 4.807v11.567c0 1.994.645 3.603 1.934 4.826 1.29 1.224 2.985 1.835 5.086 1.835 2.1 0 3.79-.611 5.066-1.835 1.276-1.223 1.914-2.832 1.914-4.826v-.08c0-.239.133-.359.4-.359l1.315.08c.266 0 .4.12.4.36 0 1.674-.38 3.157-1.138 4.447-.757 1.29-1.828 2.293-3.21 3.011-1.383.718-2.965 1.077-4.747 1.077zM249.308 149.375c-.08.133-.053.2.08.2h12.923c.266 0 .399.132.399.398v1.077c0 .266-.133.399-.399.399h-15.357c-.266 0-.398-.133-.398-.399v-1.117c0-.186.053-.345.16-.478 1.143-1.41 2.166-2.7 3.07-3.87a301.41 301.41 0 0 1 2.434-3.11l3.63-4.628c2.499-3.244 3.749-5.81 3.749-7.698 0-1.516-.512-2.739-1.536-3.67-1.024-.93-2.36-1.396-4.009-1.396-1.648 0-2.971.466-3.968 1.396-.998.931-1.483 2.154-1.456 3.67v1.276c0 .266-.133.4-.4.4h-1.315c-.266 0-.4-.134-.4-.4v-1.515c.027-1.995.739-3.61 2.135-4.847 1.396-1.236 3.197-1.855 5.404-1.855 1.543 0 2.892.293 4.049.878 1.157.585 2.054 1.403 2.692 2.453.639 1.05.958 2.24.958 3.57 0 2.287-1.277 5.092-3.83 8.416-1.834 2.394-4.44 5.678-7.817 9.853l-.798.997zM276.352 151.848c-2.447 0-4.408-.712-5.884-2.134-1.476-1.423-2.214-3.318-2.214-5.684v-13.083c0-2.367.738-4.255 2.214-5.664 1.476-1.41 3.437-2.114 5.884-2.114 2.473 0 4.46.71 5.963 2.134 1.502 1.422 2.253 3.304 2.253 5.644v13.083c0 2.366-.75 4.261-2.253 5.684-1.503 1.422-3.49 2.134-5.963 2.134zm0-1.915c1.861 0 3.343-.525 4.447-1.575 1.104-1.05 1.655-2.44 1.655-4.169v-13.362c0-1.728-.551-3.125-1.655-4.188-1.104-1.064-2.586-1.596-4.447-1.596-1.809 0-3.258.532-4.348 1.596-1.09 1.063-1.636 2.46-1.636 4.188v13.362c0 1.729.546 3.118 1.636 4.169 1.09 1.05 2.54 1.575 4.348 1.575zM292.905 149.375c-.08.133-.053.2.08.2h12.923c.266 0 .4.132.4.398v1.077c0 .266-.134.399-.4.399h-15.356c-.266 0-.4-.133-.4-.399v-1.117c0-.186.054-.345.16-.478 1.144-1.41 2.167-2.7 3.072-3.87a301.41 301.41 0 0 1 2.433-3.11l3.63-4.628c2.5-3.244 3.749-5.81 3.749-7.698 0-1.516-.512-2.739-1.536-3.67-1.023-.93-2.36-1.396-4.008-1.396-1.65 0-2.972.466-3.97 1.396-.996.931-1.482 2.154-1.455 3.67v1.276c0 .266-.133.4-.399.4h-1.316c-.266 0-.4-.134-.4-.4v-1.515c.027-1.995.739-3.61 2.135-4.847 1.396-1.236 3.197-1.855 5.405-1.855 1.542 0 2.891.293 4.048.878s2.054 1.403 2.693 2.453c.638 1.05.957 2.24.957 3.57 0 2.287-1.277 5.092-3.83 8.416-1.834 2.394-4.44 5.678-7.817 9.853l-.798.997zM314.045 149.375c-.08.133-.053.2.08.2h12.924c.266 0 .399.132.399.398v1.077c0 .266-.133.399-.4.399h-15.356c-.266 0-.399-.133-.399-.399v-1.117c0-.186.053-.345.16-.478 1.143-1.41 2.167-2.7 3.071-3.87.904-1.17 1.715-2.207 2.433-3.11l3.63-4.628c2.5-3.244 3.75-5.81 3.75-7.698 0-1.516-.512-2.739-1.536-3.67-1.024-.93-2.36-1.396-4.009-1.396-1.649 0-2.972.466-3.969 1.396-.997.931-1.482 2.154-1.456 3.67v1.276c0 .266-.133.4-.399.4h-1.316c-.266 0-.399-.134-.399-.4v-1.515c.027-1.995.738-3.61 2.134-4.847 1.396-1.236 3.198-1.855 5.405-1.855 1.542 0 2.892.293 4.049.878 1.156.585 2.054 1.403 2.692 2.453.638 1.05.957 2.24.957 3.57 0 2.287-1.276 5.092-3.829 8.416-1.835 2.394-4.44 5.678-7.818 9.853l-.798.997z"/>
        </g>
    </g>
</svg>
