<svg width="25" height="24" viewBox="0 0 25 24" fill="none" xmlns="http://www.w3.org/2000/svg">
<path d="M8.79999 3C6.03899 3 3.79999 5.239 3.79999 8V16C3.79999 18.761 6.03899 21 8.79999 21H16.8C19.561 21 21.8 18.761 21.8 16V8C21.8 5.239 19.561 3 16.8 3H8.79999ZM18.8 5C19.352 5 19.8 5.448 19.8 6C19.8 6.552 19.352 7 18.8 7C18.248 7 17.8 6.552 17.8 6C17.8 5.448 18.248 5 18.8 5ZM12.8 7C15.561 7 17.8 9.239 17.8 12C17.8 14.761 15.561 17 12.8 17C10.039 17 7.79999 14.761 7.79999 12C7.79999 9.239 10.039 7 12.8 7ZM12.8 9C12.0043 9 11.2413 9.31607 10.6787 9.87868C10.1161 10.4413 9.79999 11.2044 9.79999 12C9.79999 12.7956 10.1161 13.5587 10.6787 14.1213C11.2413 14.6839 12.0043 15 12.8 15C13.5956 15 14.3587 14.6839 14.9213 14.1213C15.4839 13.5587 15.8 12.7956 15.8 12C15.8 11.2044 15.4839 10.4413 14.9213 9.87868C14.3587 9.31607 13.5956 9 12.8 9Z" fill="#78787C"/>
</svg>
