<svg width="168" height="30" viewBox="0 0 168 30" fill="none" xmlns="http://www.w3.org/2000/svg">
<path d="M35.9813 29.2671H0L7.4817 17.4149C3.82727 13.4642 2.11858 9.87886 3.39269 8.03189C4.58779 6.27875 8.15333 6.42197 12.7411 8.0714C10.3164 7.48373 8.49902 7.63188 7.8027 8.66895C7.01749 9.8196 7.74344 11.8394 9.5509 14.1703C12.4672 17.7357 16.1408 20.6071 20.305 22.576C24.4692 24.5449 29.0195 25.562 33.6257 25.5534L35.9813 29.2671ZM17.9907 0.73291L11.0769 12.2542C16.3769 18.5215 23.9421 22.4364 32.1195 23.1434L17.9907 0.73291Z" fill="url(#paint0_linear_2136_582)"/>
<path d="M66.0661 13.3603C65.8572 13.6643 65.619 13.9472 65.355 14.2048C65.0821 14.471 64.7807 14.7062 64.4562 14.9061C64.1273 15.1026 63.7757 15.2585 63.4092 15.3703C63.0407 15.4809 62.6581 15.5375 62.2734 15.5382C61.6597 15.5422 61.0526 15.4107 60.4956 15.153C59.958 14.91 59.4718 14.5664 59.0634 14.1406C58.6463 13.7114 58.3115 13.2092 58.0757 12.6591C57.8378 12.1018 57.7151 11.5021 57.7151 10.8961C57.7151 10.2901 57.8378 9.69036 58.0757 9.13306C58.3125 8.58345 58.6472 8.08145 59.0634 7.65153C59.4744 7.22882 59.96 6.88561 60.4956 6.63916C61.0537 6.38541 61.6603 6.25568 62.2734 6.2589C62.6583 6.25721 63.0413 6.31381 63.4092 6.4268C63.7765 6.53646 64.1283 6.69245 64.4562 6.89101C64.7803 7.08574 65.0818 7.31597 65.355 7.57745C65.6212 7.83121 65.8596 8.11264 66.0661 8.41698L68.5353 7.4293C68.23 6.88727 67.8529 6.38893 67.4143 5.94777C66.9699 5.51014 66.4721 5.13019 65.9328 4.81688C64.8129 4.16521 63.5394 3.82425 62.2438 3.8292C61.2855 3.82424 60.3362 4.0141 59.4536 4.38724C58.6052 4.75429 57.833 5.27688 57.177 5.92802C56.5231 6.57075 55.997 7.3315 55.6263 8.17006C55.2518 9.0327 55.0586 9.96307 55.0586 10.9035C55.0586 11.8439 55.2518 12.7743 55.6263 13.6369C56.378 15.3328 57.7513 16.676 59.4634 17.3901C60.3461 17.7632 61.2954 17.9531 62.2536 17.9481C63.5489 17.9502 64.8217 17.6095 65.9426 16.9604C66.4821 16.6454 66.9799 16.2638 67.4242 15.8246C67.8652 15.3856 68.2425 14.8869 68.5452 14.3431L66.0661 13.3603Z" fill="white"/>
<path d="M72.1157 4.14038V6.25402V6.39724V15.2815V15.7012V17.5334H82.5457V15.2815H74.7923V12.0369H81.558V9.78005H74.7923V6.39724H82.5457V4.14038H72.1157Z" fill="white"/>
<path d="M46.525 9.09869L48.7177 13.1877H44.3373L46.525 9.09869ZM43.1224 15.4347H49.9276L51.0535 17.5335H53.7203L47.8584 6.6196L46.5299 4.15039L45.1966 6.6196L39.3396 17.5335H42.0014L43.1224 15.4347Z" fill="white"/>
<path d="M150.962 9.09869L153.155 13.1877H148.765L150.962 9.09869ZM147.55 15.4347H154.365L155.491 17.5335H158.153L152.291 6.6196L150.962 4.15039L149.629 6.6196L143.772 17.5335H146.434L147.55 15.4347Z" fill="white"/>
<path d="M96.6844 17.9531C95.768 17.9621 94.8593 17.7857 94.0127 17.4346C91.4546 16.358 89.9632 14.4716 89.5682 11.8641C89.3305 10.1262 89.7523 8.36225 90.7504 6.91985C91.7486 5.47746 93.2507 4.46118 94.9609 4.07124C95.5538 3.93443 96.1599 3.86322 96.7684 3.85889C98.4555 3.87081 100.085 4.47566 101.371 5.56758L99.529 7.36517L99.1783 7.11825L98.8079 6.8812C98.4918 6.67718 98.1474 6.52077 97.7857 6.41699C97.4368 6.32932 97.0788 6.28291 96.719 6.27872C96.1041 6.27894 95.4955 6.40318 94.9297 6.64403C94.3638 6.88487 93.8524 7.23736 93.426 7.6804C92.9995 8.12345 92.6668 8.64796 92.4477 9.22256C92.2287 9.79715 92.1277 10.41 92.151 11.0245C92.1654 11.964 92.4727 12.8755 93.03 13.632C93.7942 14.5484 94.8643 15.1571 96.0424 15.3457C96.2153 15.3703 96.3931 15.3852 96.3931 15.3852C96.3931 15.3852 96.5708 15.3852 96.7486 15.3852C97.6812 15.3709 98.5886 15.0805 99.3561 14.5506C99.719 14.276 100.033 13.9421 100.285 13.5629C100.497 13.2352 100.664 12.8796 100.778 12.5061L100.867 12.2246H96.8276V9.75536H103.465C103.463 9.77508 103.463 9.7949 103.465 9.81462C103.64 10.9588 103.55 12.1278 103.203 13.232C102.897 14.3041 102.326 15.2822 101.544 16.0765C100.525 17.0815 99.1906 17.7042 97.7659 17.8395C97.4081 17.8996 97.0469 17.9375 96.6844 17.9531V17.9531Z" fill="white"/>
<path d="M106.156 4.14038H108.537V15.4148H113.677V17.5334H106.156V4.14038Z" fill="white"/>
<path d="M160.489 4.14038H162.859V15.4148H168V17.5334H160.489V4.14038Z" fill="white"/>
<path d="M132.068 4.14038H137.293C137.792 4.1409 138.289 4.20057 138.774 4.31816C139.247 4.42818 139.695 4.62765 140.093 4.90583C140.51 5.19626 140.846 5.58687 141.073 6.04167C141.299 6.49648 141.407 7.00086 141.387 7.50838C141.413 8.19037 141.184 8.85763 140.745 9.38004C140.294 9.88501 139.711 10.253 139.061 10.4418V10.4764C139.845 10.5641 140.577 10.9118 141.14 11.4641C141.416 11.7534 141.63 12.0954 141.77 12.4697C141.91 12.844 141.973 13.2427 141.955 13.6419C141.977 14.2853 141.827 14.9229 141.52 15.4889C141.241 15.9759 140.848 16.3878 140.374 16.6889C139.875 16.9999 139.325 17.2206 138.75 17.3408C138.136 17.4734 137.51 17.5396 136.883 17.5383H132.058L132.068 4.14038ZM134.453 9.57264H136.572C137.215 9.61004 137.853 9.43666 138.389 9.0788C138.594 8.92243 138.758 8.71835 138.867 8.48427C138.975 8.25019 139.025 7.99318 139.011 7.73555C139.034 7.48306 138.986 7.22929 138.872 7.00257C138.759 6.77585 138.585 6.58508 138.369 6.45156C137.744 6.15739 137.054 6.02656 136.364 6.0713H134.453V9.57264ZM134.453 15.4987H136.592C136.922 15.4981 137.252 15.4767 137.579 15.4345C137.921 15.3957 138.255 15.3024 138.567 15.158C138.859 15.0208 139.114 14.8139 139.308 14.5555C139.515 14.2413 139.617 13.8696 139.599 13.4937C139.63 13.2046 139.579 12.9127 139.452 12.6509C139.326 12.3892 139.129 12.1679 138.883 12.0122C138.203 11.6934 137.454 11.5508 136.705 11.5974H134.473L134.453 15.4987Z" fill="white"/>
<path d="M122.167 3.87374C120.776 3.91839 119.429 4.3745 118.297 5.18439C117.165 5.99429 116.299 7.1216 115.808 8.42378C115.317 9.72597 115.223 11.1446 115.538 12.5002C115.853 13.8558 116.563 15.0876 117.578 16.0398C118.593 16.992 119.867 17.6218 121.24 17.8497C122.613 18.0775 124.023 17.8931 125.291 17.3199C126.559 16.7466 127.629 15.8102 128.365 14.629C129.101 13.4478 129.47 12.0749 129.426 10.6838C129.397 9.75996 129.186 8.85092 128.805 8.00865C128.424 7.16637 127.881 6.40736 127.207 5.77496C126.533 5.14256 125.741 4.64916 124.876 4.32294C124.011 3.99673 123.091 3.84408 122.167 3.87374V3.87374ZM122.389 15.4642C121.487 15.4642 120.606 15.1969 119.857 14.696C119.107 14.1952 118.523 13.4833 118.178 12.6504C117.833 11.8175 117.742 10.901 117.918 10.0168C118.094 9.1326 118.528 8.32041 119.166 7.68294C119.803 7.04547 120.615 6.61135 121.5 6.43548C122.384 6.2596 123.3 6.34986 124.133 6.69486C124.966 7.03986 125.678 7.62409 126.179 8.37367C126.68 9.12326 126.947 10.0045 126.947 10.9061C126.947 12.1149 126.467 13.2743 125.612 14.1292C124.757 14.984 123.598 15.4642 122.389 15.4642V15.4642Z" fill="white"/>
<path d="M40.169 20.8767H43.7691V21.5829H40.9246V23.2472H43.5765V23.9583H40.9246V25.746H43.8876V26.4571H40.1443L40.169 20.8767Z" fill="white"/>
<path d="M47.0976 24.462L45.7741 22.7188H46.6877L47.5964 24.0422L48.4853 22.7188H49.3446L48.0704 24.462L49.5816 26.4374H48.668L47.5618 24.867L46.4605 26.4374H45.5864L47.0976 24.462Z" fill="white"/>
<path d="M54.1054 23.7063C53.9867 23.5809 53.8483 23.4758 53.6956 23.3952C53.54 23.3264 53.3718 23.2911 53.2017 23.2915C53.0315 23.2897 52.863 23.3251 52.7079 23.3952C52.5674 23.464 52.4441 23.5636 52.3474 23.6866C52.2464 23.8142 52.171 23.9601 52.1251 24.1162C52.0758 24.2762 52.0509 24.4426 52.0511 24.61C52.0508 24.7782 52.0792 24.9452 52.135 25.1039C52.1897 25.2539 52.2736 25.3915 52.3819 25.5088C52.4872 25.624 52.615 25.7164 52.7573 25.7805C52.9135 25.8466 53.0815 25.8802 53.2511 25.8792C53.4219 25.8814 53.5909 25.8443 53.7449 25.7706C53.8951 25.6928 54.0292 25.5872 54.14 25.4594L54.6339 25.9533C54.4581 26.149 54.2379 26.2998 53.9919 26.3928C53.7416 26.4826 53.4775 26.5277 53.2116 26.5261C52.9415 26.5286 52.6735 26.48 52.4214 26.3829C52.1909 26.2947 51.9809 26.1602 51.8041 25.9879C51.6255 25.8143 51.4873 25.6035 51.3992 25.3706C51.2084 24.8594 51.2084 24.2965 51.3992 23.7853C51.4885 23.5512 51.6246 23.3378 51.7992 23.1582C51.9737 22.9829 52.182 22.8451 52.4116 22.7532C52.9228 22.5624 53.4856 22.5624 53.9968 22.7532C54.2452 22.8496 54.4682 23.0016 54.6487 23.1977L54.1054 23.7063Z" fill="white"/>
<path d="M56.5054 20.8767H57.2116V23.2965C57.3056 23.0839 57.4694 22.9097 57.6758 22.8027C57.9102 22.6744 58.1741 22.6097 58.4412 22.615C58.6092 22.6173 58.7758 22.6456 58.9351 22.699C59.0978 22.7499 59.2465 22.8378 59.3696 22.9558C59.5003 23.08 59.6015 23.2319 59.666 23.4002C59.7432 23.6052 59.7801 23.8232 59.7746 24.0422V26.4472H59.103V24.2497C59.1081 24.0985 59.0847 23.9477 59.0338 23.8052C58.9958 23.6915 58.9315 23.5883 58.8462 23.504C58.7693 23.4296 58.6763 23.3739 58.5746 23.341C58.4712 23.3058 58.3628 23.2874 58.2536 23.2867C58.1135 23.2855 57.9745 23.3107 57.8437 23.3607C57.7168 23.4065 57.6031 23.4828 57.5128 23.583C57.4128 23.6965 57.3372 23.8292 57.2906 23.9731C57.2363 24.1541 57.2097 24.3422 57.2116 24.5312V26.4571H56.5054V20.8767Z" fill="white"/>
<path d="M62.1697 23.1779C62.3723 22.9952 62.6089 22.8542 62.866 22.7631C63.1194 22.6714 63.3868 22.6246 63.6562 22.6248C63.8941 22.6194 64.1313 22.6544 64.3574 22.7285C64.5394 22.7855 64.7076 22.8797 64.8513 23.0051C64.972 23.1143 65.0666 23.2493 65.1278 23.4002C65.1906 23.5486 65.2225 23.7082 65.2217 23.8693V25.7805C65.2217 25.9089 65.2217 26.0323 65.2217 26.141C65.2217 26.2496 65.2217 26.3583 65.2217 26.457H64.5896C64.5896 26.2694 64.5896 26.0768 64.5896 25.8891C64.4538 26.1031 64.2604 26.2743 64.0315 26.383C63.7949 26.4859 63.5388 26.5365 63.2809 26.5311C63.1138 26.531 62.9477 26.5077 62.787 26.462C62.6368 26.4174 62.4962 26.3454 62.3722 26.2496C62.2547 26.1539 62.1588 26.0344 62.0907 25.899C62.0199 25.7443 61.9861 25.5752 61.9919 25.4051C61.9828 25.1914 62.0379 24.9799 62.15 24.7977C62.2637 24.6318 62.4163 24.4962 62.5944 24.4026C62.7978 24.2927 63.0181 24.2176 63.2463 24.1804C63.5106 24.1358 63.7783 24.1143 64.0463 24.1162H64.5698V23.9582C64.5697 23.8597 64.5495 23.7622 64.5105 23.6718C64.4742 23.576 64.4187 23.4886 64.3476 23.415C64.2681 23.338 64.1741 23.2775 64.071 23.2372C63.945 23.1889 63.8109 23.1654 63.6759 23.168C63.5563 23.1668 63.4369 23.1801 63.3204 23.2075C63.2234 23.2307 63.1291 23.2638 63.0389 23.3063C62.9575 23.3424 62.8812 23.3889 62.8117 23.4446L62.6142 23.5927L62.1697 23.1779ZM64.1747 24.6594C64.0015 24.6597 63.8284 24.6696 63.6562 24.6891C63.4875 24.7002 63.3212 24.7351 63.1623 24.7928C63.0293 24.8406 62.908 24.9163 62.8068 25.015C62.7607 25.0627 62.7247 25.1193 62.701 25.1812C62.6772 25.2431 62.6662 25.3092 62.6685 25.3755C62.6588 25.4654 62.6739 25.5562 62.7122 25.638C62.7505 25.7199 62.8106 25.7896 62.8858 25.8397C63.0629 25.9454 63.2676 25.9953 63.4735 25.9829C63.6435 25.9882 63.8124 25.9545 63.9673 25.8842C64.0962 25.8257 64.2095 25.7377 64.2982 25.6274C64.3814 25.5243 64.442 25.4048 64.476 25.2767C64.5145 25.1536 64.5345 25.0255 64.5352 24.8965V24.6594H64.1747Z" fill="white"/>
<path d="M67.518 22.7187H68.2291V23.2965C68.3232 23.0839 68.4869 22.9097 68.6933 22.8027C68.9279 22.6748 69.1917 22.6101 69.4588 22.615C69.6267 22.6173 69.7933 22.6456 69.9526 22.6989C70.1153 22.7499 70.2641 22.8378 70.3872 22.9558C70.5178 23.08 70.6191 23.2318 70.6835 23.4002C70.7608 23.6052 70.7977 23.8232 70.7921 24.0422V26.4472H70.086V24.2496C70.0897 24.0981 70.0645 23.9473 70.0119 23.8052C69.9738 23.6914 69.9095 23.5882 69.8242 23.5039C69.7481 23.4286 69.6549 23.3727 69.5526 23.3409C69.4493 23.3052 69.3409 23.2868 69.2316 23.2866C69.0915 23.2855 68.9525 23.3106 68.8217 23.3607C68.6948 23.4064 68.5812 23.4828 68.4908 23.5829C68.3909 23.6964 68.3152 23.8292 68.2686 23.9731C68.2161 24.1543 68.1912 24.3424 68.1945 24.5311V26.4571H67.4834L67.518 22.7187Z" fill="white"/>
<path d="M76.9307 26.4274C76.934 26.6932 76.8836 26.9569 76.7826 27.2027C76.69 27.4329 76.5485 27.6402 76.3677 27.8102C76.1816 27.9851 75.9614 28.1196 75.7208 28.2052C75.4535 28.3028 75.1708 28.3513 74.8862 28.3485C74.5511 28.3532 74.2175 28.3032 73.8985 28.2003C73.5818 28.0874 73.2924 27.909 73.0491 27.6768L73.543 27.0793C73.7141 27.2665 73.9183 27.4206 74.1454 27.5336C74.3742 27.6397 74.6242 27.6921 74.8763 27.6867C75.1006 27.6925 75.3238 27.6539 75.5332 27.5731C75.6902 27.5063 75.8303 27.405 75.943 27.2768C76.0459 27.1567 76.1201 27.0149 76.1603 26.862C76.2038 26.7094 76.2254 26.5515 76.2245 26.3928V25.8397C76.0949 26.0569 75.9019 26.2293 75.6714 26.3336C75.4391 26.4401 75.1862 26.494 74.9307 26.4916C74.6702 26.4945 74.4117 26.4458 74.1701 26.3484C73.9455 26.2551 73.7409 26.1192 73.5677 25.9484C73.3996 25.772 73.2657 25.5661 73.1726 25.341C73.0784 25.0986 73.0315 24.8404 73.0343 24.5804C73.0319 24.3177 73.0771 24.0567 73.1676 23.8101C73.2518 23.578 73.381 23.3648 73.5479 23.1829C73.718 23.0033 73.923 22.8605 74.1504 22.7631C74.3978 22.6614 74.6632 22.611 74.9307 22.615C75.1871 22.6146 75.4402 22.672 75.6714 22.7829C75.8985 22.8825 76.0934 23.0432 76.2344 23.2471V23.2471V22.7187H76.9307V26.4274ZM74.9554 23.2866C74.7859 23.2876 74.6183 23.3211 74.4615 23.3854C74.3151 23.4449 74.1836 23.5359 74.0763 23.652C73.9684 23.7706 73.8861 23.9102 73.8343 24.0619C73.7737 24.2314 73.7436 24.4103 73.7454 24.5903C73.7374 24.7562 73.7626 24.9219 73.8194 25.078C73.8762 25.234 73.9635 25.3771 74.0763 25.499C74.3245 25.7181 74.6441 25.839 74.9751 25.839C75.3061 25.839 75.6257 25.7181 75.8739 25.499C75.9867 25.3771 76.074 25.234 76.1308 25.078C76.1876 24.9219 76.2128 24.7562 76.2048 24.5903C76.2058 24.4108 76.1775 24.2323 76.1208 24.0619C76.0653 23.9108 75.9815 23.7717 75.8739 23.652C75.7666 23.5359 75.6351 23.4449 75.4887 23.3854C75.3196 23.316 75.138 23.2823 74.9554 23.2866V23.2866Z" fill="white"/>
<path d="M79.7901 24.8473C79.7897 25.0021 79.827 25.1546 79.8988 25.2917C79.965 25.4269 80.0613 25.5452 80.1802 25.6374C80.2995 25.7344 80.4349 25.8096 80.5803 25.8597C80.7395 25.9127 80.9063 25.9394 81.0741 25.9387C81.2764 25.943 81.4755 25.8881 81.6469 25.7807C81.8194 25.6732 81.9716 25.5361 82.0963 25.3757L82.6346 25.7856C82.4406 26.0367 82.189 26.2373 81.901 26.3706C81.6131 26.5038 81.2972 26.5657 80.9803 26.551C80.7064 26.5552 80.4344 26.5049 80.1802 26.4029C79.9494 26.3116 79.7418 26.1699 79.5728 25.9881C79.4039 25.8087 79.2729 25.597 79.1876 25.3658C79.0974 25.1174 79.0523 24.8548 79.0543 24.5905C79.0519 24.3232 79.1023 24.0581 79.2024 23.8102C79.2954 23.5795 79.4311 23.3684 79.6025 23.188C79.7827 23.0052 79.9982 22.8611 80.2359 22.7643C80.4736 22.6675 80.7286 22.6201 80.9852 22.625C81.2746 22.6169 81.562 22.6761 81.8247 22.7978C82.0444 22.9046 82.2369 23.06 82.3877 23.2522C82.5369 23.4387 82.6461 23.6538 82.7087 23.8843C82.7737 24.1158 82.8069 24.355 82.8075 24.5954V24.8473H79.7901ZM82.0321 24.2794C82.0293 24.1332 82.0043 23.9884 81.9581 23.8497C81.9149 23.7219 81.846 23.6042 81.7556 23.504C81.6624 23.4037 81.5476 23.326 81.4198 23.2769C81.2703 23.2189 81.111 23.1904 80.9506 23.1929C80.7807 23.1888 80.6121 23.2225 80.4568 23.2917C80.1857 23.4096 79.97 23.627 79.8543 23.8991C79.8014 24.019 79.7728 24.1483 79.7704 24.2794H82.0321Z" fill="white"/>
<defs>
<linearGradient id="paint0_linear_2136_582" x1="3.06182" y1="32.9166" x2="28.3515" y2="11.1135" gradientUnits="userSpaceOnUse">
<stop stop-color="#A77622"/>
<stop offset="0.05" stop-color="#BA9134"/>
<stop offset="0.12" stop-color="#CFAE47"/>
<stop offset="0.2" stop-color="#DDC254"/>
<stop offset="0.27" stop-color="#E6CF5C"/>
<stop offset="0.33" stop-color="#E9D35F"/>
<stop offset="0.52" stop-color="#ECDC83"/>
<stop offset="0.66" stop-color="#E9D35F"/>
<stop offset="0.73" stop-color="#E6CF5C"/>
<stop offset="0.8" stop-color="#DDC254"/>
<stop offset="0.87" stop-color="#CFAE47"/>
<stop offset="0.95" stop-color="#BA9134"/>
<stop offset="1" stop-color="#A77622"/>
</linearGradient>
</defs>
</svg>
