<svg width="25" height="24" viewBox="0 0 25 24" fill="none" xmlns="http://www.w3.org/2000/svg">
<path d="M23.9112 5.10968C23.0848 5.47218 22.2042 5.71246 21.2861 5.82913C22.2306 5.26524 22.9514 4.37912 23.2903 3.31106C22.4098 3.83606 21.4375 4.2069 20.4014 4.41384C19.5653 3.52356 18.3736 2.97217 17.0736 2.97217C14.5514 2.97217 12.5208 5.0194 12.5208 7.52914C12.5208 7.89025 12.5514 8.23747 12.6264 8.56803C8.83885 8.38331 5.48744 6.56802 3.23604 3.80273C2.84299 4.48468 2.61243 5.26524 2.61243 6.10552C2.61243 7.68331 3.42493 9.08192 4.63605 9.89165C3.9041 9.87776 3.18604 9.66526 2.57771 9.33054C2.57771 9.34443 2.57771 9.36248 2.57771 9.38054C2.57771 11.5944 4.15688 13.4333 6.22773 13.857C5.85689 13.9583 5.45272 14.007 5.03328 14.007C4.74161 14.007 4.44716 13.9903 4.17077 13.9292C4.76105 15.7334 6.43606 17.0597 8.42774 17.1028C6.87773 18.3153 4.90966 19.0459 2.7791 19.0459C2.40548 19.0459 2.04715 19.0292 1.68881 18.9834C3.70688 20.2848 6.09856 21.0278 8.67774 21.0278C17.0611 21.0278 21.6445 14.0833 21.6445 8.06386C21.6445 7.86247 21.6375 7.66803 21.6278 7.47497C22.532 6.8333 23.2917 6.03191 23.9112 5.10968Z" fill="#78787C"/>
</svg>
