<svg width="24" height="24" viewBox="0 0 24 24" fill="none" xmlns="http://www.w3.org/2000/svg">
<path fill-rule="evenodd" clip-rule="evenodd" d="M22 12C22 6.48 17.52 2 12 2C6.48 2 2 6.48 2 12C2 17.52 6.48 22 12 22C17.52 22 22 17.52 22 12ZM17.163 18.11C15.853 16.76 14.043 16 12.163 16C10.203 16 8.333 16.82 7.013 18.26C8.433 19.39 10.183 20 12.003 20C13.973 20 15.773 19.29 17.163 18.11ZM12.1604 14.0004C14.5504 14.0004 16.8404 14.9404 18.5204 16.6304C20.9004 13.2904 20.3604 8.69041 17.2704 5.98041C14.1904 3.28041 9.56037 3.35041 6.55037 6.14041C3.55037 8.93041 3.14037 13.5504 5.62037 16.8204C7.31037 15.0204 9.68037 14.0004 12.1604 14.0004ZM16 9C16 6.79 14.21 5 12 5C9.79 5 8 6.79 8 9C8 11.21 9.79 13 12 13C14.21 13 16 11.21 16 9ZM12 7C10.9 7 10 7.9 10 9C10 10.1 10.9 11 12 11C13.1 11 14 10.1 14 9C14 7.9 13.1 7 12 7Z" fill="white"/>
</svg>
