<svg width="24" height="24" viewBox="0 0 24 24" fill="none" xmlns="http://www.w3.org/2000/svg">
<path fill-rule="evenodd" clip-rule="evenodd" d="M4.33084 6.20537C4.33084 5.16529 5.17399 4.32214 6.21407 4.32214H15.8717C16.3784 4.32214 16.7892 4.73291 16.7892 5.23961V5.67421H7.17983C6.61979 5.67421 6.16578 6.12821 6.16578 6.68826C6.16578 7.2483 6.61979 7.70231 7.17983 7.70231H17.8032C18.3099 7.70231 18.7207 8.11307 18.7207 8.61978V10.0202H16.4151C14.7883 10.0202 13.4696 11.339 13.4696 12.9658C13.4696 14.5926 14.7883 15.9114 16.4151 15.9114H18.7207V18.7603C18.7207 19.267 18.3099 19.6778 17.8032 19.6778H6.21407C5.17399 19.6778 4.33084 18.8346 4.33084 17.7945V6.20537ZM20.7488 15.9114V18.7603C20.7488 20.3871 19.43 21.7059 17.8032 21.7059H6.21407C4.0539 21.7059 2.30273 19.9547 2.30273 17.7945V6.20537C2.30273 4.0452 4.0539 2.29404 6.21407 2.29404H15.8717C17.4985 2.29404 18.8173 3.61282 18.8173 5.23961V5.8534C19.9445 6.26672 20.7488 7.34932 20.7488 8.61978V10.0202H21.2439C21.804 10.0202 22.258 10.4742 22.258 11.0343V14.8973C22.258 15.4574 21.804 15.9114 21.2439 15.9114H20.7488ZM15.4977 12.9658C15.4977 12.4591 15.9084 12.0483 16.4151 12.0483H20.2299V13.8833H16.4151C15.9084 13.8833 15.4977 13.4725 15.4977 12.9658Z" fill="#78787c"/>
</svg>
