<svg width="24" height="24" viewBox="0 0 24 24" fill="none" xmlns="http://www.w3.org/2000/svg">
<path fill-rule="evenodd" clip-rule="evenodd" d="M17.657 7.995C17.8848 8.63889 18.0008 9.317 18 10V16H20C20.55 16 21 16.45 21 17C21 17.55 20.55 18 20 18H15V19C15 19.7956 14.6839 20.5587 14.1213 21.1213C13.5587 21.6839 12.7956 22 12 22C11.2044 22 10.4413 21.6839 9.87868 21.1213C9.31607 20.5587 9 19.7956 9 19V18H4C3.45 18 3 17.55 3 17C3 16.45 3.45 16 4 16H6V10C6.00018 8.58203 6.50239 7.20991 7.4176 6.12685C8.33281 5.04378 9.60193 4.31972 11 4.083V3C11 2.73478 11.1054 2.48043 11.2929 2.29289C11.4804 2.10536 11.7348 2 12 2C12.2652 2 12.5196 2.10536 12.7071 2.29289C12.8946 2.48043 13 2.73478 13 3V4.083C13.7371 4.20668 14.4444 4.46789 15.085 4.853C15.6613 5.232 16.9826 6.391 17.657 7.995ZM12.7071 19.7071C12.5196 19.8946 12.2652 20 12 20C11.7348 20 11.4804 19.8946 11.2929 19.7071C11.1054 19.5196 11 19.2652 11 19V18H13V19C13 19.2652 12.8946 19.5196 12.7071 19.7071ZM8 10V16H16V10C16 8.93913 15.5786 7.92172 14.8284 7.17157C14.0783 6.42143 13.0609 6 12 6C10.9391 6 9.92172 6.42143 9.17157 7.17157C8.42143 7.92172 8 8.93913 8 10Z" fill="#E0B954"/>
</svg>
