<svg width="25" height="24" viewBox="0 0 25 24" fill="none" xmlns="http://www.w3.org/2000/svg">
<path d="M23.9108 5.10968C23.0844 5.47218 22.2039 5.71246 21.2858 5.82913C22.2303 5.26524 22.9511 4.37912 23.29 3.31106C22.4094 3.83606 21.4372 4.2069 20.4011 4.41384C19.565 3.52356 18.3733 2.97217 17.0733 2.97217C14.551 2.97217 12.5205 5.0194 12.5205 7.52914C12.5205 7.89025 12.551 8.23747 12.626 8.56803C8.83852 8.38331 5.48711 6.56802 3.23571 3.80273C2.84265 4.48468 2.61209 5.26524 2.61209 6.10552C2.61209 7.68331 3.4246 9.08192 4.63572 9.89165C3.90377 9.87776 3.18571 9.66526 2.57737 9.33054C2.57737 9.34443 2.57737 9.36248 2.57737 9.38054C2.57737 11.5944 4.15655 13.4333 6.22739 13.857C5.85655 13.9583 5.45239 14.007 5.03294 14.007C4.74127 14.007 4.44683 13.9903 4.17043 13.9292C4.76072 15.7334 6.43572 17.0597 8.4274 17.1028C6.87739 18.3153 4.90933 19.0459 2.77876 19.0459C2.40515 19.0459 2.04681 19.0292 1.68848 18.9834C3.70654 20.2848 6.09822 21.0278 8.6774 21.0278C17.0608 21.0278 21.6441 14.0833 21.6441 8.06386C21.6441 7.86247 21.6372 7.66803 21.6275 7.47497C22.5316 6.8333 23.2914 6.03191 23.9108 5.10968Z" fill="#1DA1F2"/>
</svg>
