<svg width="25" height="24" viewBox="0 0 25 24" fill="none" xmlns="http://www.w3.org/2000/svg">
<path d="M12.7998 14C13.9044 14 14.7998 13.1046 14.7998 12C14.7998 10.8954 13.9044 10 12.7998 10C11.6952 10 10.7998 10.8954 10.7998 12C10.7998 13.1046 11.6952 14 12.7998 14Z" fill="white"/>
<path d="M19.7998 14C20.9044 14 21.7998 13.1046 21.7998 12C21.7998 10.8954 20.9044 10 19.7998 10C18.6952 10 17.7998 10.8954 17.7998 12C17.7998 13.1046 18.6952 14 19.7998 14Z" fill="white"/>
<path d="M5.7998 14C6.90437 14 7.7998 13.1046 7.7998 12C7.7998 10.8954 6.90437 10 5.7998 10C4.69524 10 3.7998 10.8954 3.7998 12C3.7998 13.1046 4.69524 14 5.7998 14Z" fill="white"/>
</svg>
