<svg width="25" height="24" viewBox="0 0 25 24" fill="none" xmlns="http://www.w3.org/2000/svg">
<g clip-path="url(#clip0_2268_1125)">
<path d="M22.8848 4.733L24.7998 2.901V2.5H18.1658L13.4378 14.268L8.0588 2.5H1.1028V2.901L3.3398 5.594C3.5578 5.793 3.6718 6.084 3.6428 6.377V16.96C3.7118 17.341 3.5878 17.733 3.3198 18.01L0.799805 21.064V21.46H7.9448V21.059L5.4248 18.01C5.1518 17.732 5.0228 17.347 5.0778 16.96V7.806L11.3498 21.465H12.0788L17.4718 7.806V18.687C17.4718 18.974 17.4718 19.033 17.2838 19.221L15.3438 21.098V21.5H24.7558V21.099L22.8858 19.268C22.7218 19.144 22.6368 18.936 22.6718 18.734V5.267C22.6368 5.064 22.7208 4.856 22.8848 4.733Z" fill="white"/>
</g>
<defs>
<clipPath id="clip0_2268_1125">
<rect width="24" height="24" fill="white" transform="translate(0.799805)"/>
</clipPath>
</defs>
</svg>
