<svg width="25" height="24" viewBox="0 0 25 24" fill="none" xmlns="http://www.w3.org/2000/svg">
<path fill-rule="evenodd" clip-rule="evenodd" d="M22.7249 5.16279C22.7517 5.03428 22.7751 4.92225 22.7935 4.84121C22.8603 4.29033 22.3843 3.86471 21.9333 4.03995C21.6243 4.1568 21.3237 4.26531 21.0147 4.38215C20.2506 4.66597 19.4886 4.94971 18.7265 5.23346C17.9645 5.5172 17.2024 5.80095 16.4383 6.08476C15.5087 6.42832 14.5819 6.77466 13.6562 7.12053C12.9853 7.37125 12.3151 7.62176 11.6448 7.87079C10.8392 8.17271 10.0336 8.47253 9.22799 8.77235C8.4302 9.06925 7.6324 9.36615 6.83457 9.66515C5.65706 10.0992 4.47956 10.5415 3.3104 10.9839C2.94297 11.1174 2.78431 11.3594 2.80099 11.7016C2.81771 11.9687 3.04317 12.2191 3.36886 12.3192C4.08693 12.5432 4.80298 12.7651 5.51899 12.987C6.24354 13.2116 6.96807 13.4362 7.69472 13.663C7.77824 13.688 7.8701 13.7797 7.89516 13.8632C8.25425 14.9232 8.60499 15.9748 8.96409 17.0347C9.20629 17.7691 9.45681 18.5036 9.70736 19.238C9.7825 19.4551 9.93282 19.6053 10.15 19.6804C10.4757 19.7973 10.7262 19.6721 10.96 19.4551C11.2113 19.2176 11.4634 18.9801 11.7159 18.7423C12.2354 18.2531 12.7562 17.7626 13.2733 17.2684C13.4069 17.1432 13.4987 17.1265 13.649 17.235C14.277 17.696 14.905 18.1495 15.5329 18.6031C15.8486 18.8311 16.1644 19.0592 16.4801 19.2882C16.6152 19.386 16.7499 19.4848 16.8847 19.5836C17.3245 19.9062 17.7652 20.2295 18.2255 20.5234C18.785 20.8739 19.4948 20.5484 19.6451 19.9058C19.6869 19.7305 19.7287 19.5552 19.7621 19.3799C19.8414 19.0086 19.9186 18.635 19.9959 18.2615C20.0732 17.8881 20.1504 17.5145 20.2297 17.1432L20.6807 14.9649C20.7743 14.5023 20.8712 14.0428 20.9672 13.5826C21.0254 13.3039 21.0833 13.025 21.14 12.7449C21.2979 12.0222 21.4475 11.2912 21.5972 10.5603L21.5993 10.5499C21.6972 10.0875 21.7927 9.62745 21.8883 9.16853C21.9722 8.76597 22.0563 8.36429 22.1421 7.96261C22.2494 7.44931 22.3528 6.9398 22.4576 6.43151C22.5078 6.18778 22.5583 5.94432 22.6098 5.70085C22.6517 5.51442 22.6911 5.32535 22.7249 5.16279ZM10.3604 17.6589C10.3521 17.6732 10.3404 17.6935 10.3253 17.7274L10.288 17.6235C10.2299 17.4615 10.1802 17.3232 10.1249 17.185C9.93275 16.5686 9.74534 15.9499 9.55762 15.33C9.39455 14.7916 9.23125 14.2523 9.06432 13.713L9.0573 13.6908C8.92217 13.2622 8.92085 13.258 9.32321 13.0036C12.4298 11.0172 15.5448 9.03086 18.6513 7.05285C18.7516 6.99446 18.8601 6.936 18.9687 6.91932C19.0355 6.91098 19.1357 6.96943 19.1691 7.02782C19.1943 7.0656 19.1958 7.13165 19.1807 7.18699C19.1987 7.24063 19.1836 7.32344 19.1622 7.3745C19.1213 7.44985 19.0559 7.51678 18.9905 7.57538L11.0417 14.9087C10.8863 15.051 10.8208 15.1933 10.8045 15.4026C10.7609 15.9324 10.7028 16.4623 10.6447 16.9922C10.6156 17.2576 10.5865 17.523 10.5592 17.7885C10.5428 17.7968 10.5264 17.8136 10.4937 17.8889C10.4682 17.8073 10.4427 17.7334 10.4182 17.6636C10.4057 17.6281 10.3935 17.5938 10.3817 17.56C10.3796 17.5797 10.3775 17.5992 10.3754 17.6189C10.3754 17.6326 10.3704 17.6414 10.3604 17.6589Z" fill="#0088CC"/>
</svg>
