<svg width="24" height="24" viewBox="0 0 24 24" fill="none" xmlns="http://www.w3.org/2000/svg">
<path d="M4.5 4.49998L15.2565 4.49698C15.1245 4.87198 15.039 5.27248 15.0105 5.68648L15 5.99998H4.5C4.10218 5.99998 3.72064 6.15802 3.43934 6.43932C3.15804 6.72062 3 7.10216 3 7.49998V7.78648L11.25 11.9115L16.452 9.31048C16.8909 9.71491 17.4059 10.028 17.967 10.2315L11.5845 13.4205C11.4172 13.5043 11.2246 13.5224 11.0445 13.4715L10.9125 13.4205L3 9.46498V16.5C3 16.8978 3.15804 17.2793 3.43934 17.5606C3.72064 17.8419 4.10218 18 4.5 18H18C18.3978 18 18.7794 17.8419 19.0607 17.5606C19.342 17.2793 19.5 16.8978 19.5 16.5V10.5C20.0265 10.5 20.532 10.41 21 10.2435V16.5C21 17.2956 20.6839 18.0587 20.1213 18.6213C19.5587 19.1839 18.7957 19.5 18 19.5H4.5C3.70435 19.5 2.94129 19.1839 2.37868 18.6213C1.81607 18.0587 1.5 17.2956 1.5 16.5V7.49998C1.5 6.70433 1.81607 5.94127 2.37868 5.37866C2.94129 4.81605 3.70435 4.49998 4.5 4.49998ZM19.5 8.99998C19.386 8.99998 19.275 8.99398 19.164 8.98198L18.906 8.94148L18.807 8.91898L18.669 8.88298C18.5056 8.83615 18.3465 8.77543 18.1935 8.70148L17.943 8.56498C17.5383 8.31916 17.1975 7.98102 16.9485 7.57823C16.6995 7.17543 16.5494 6.71941 16.5105 6.24748L16.5 5.99998L16.503 5.86498L16.5165 5.68348L16.5495 5.45548L16.6125 5.18248L16.6905 4.94698L16.7835 4.72498L16.9035 4.49848C17.1286 4.10881 17.4385 3.77476 17.8102 3.52109C18.1819 3.26742 18.6059 3.10062 19.0508 3.03304C19.4957 2.96546 19.9501 2.99885 20.3804 3.13071C20.8106 3.26258 21.2057 3.48955 21.5363 3.79482C21.867 4.10009 22.1247 4.47583 22.2904 4.89421C22.4561 5.3126 22.5256 5.7629 22.4937 6.21178C22.4618 6.66066 22.3293 7.09661 22.1061 7.48734C21.8828 7.87807 21.5745 8.21356 21.204 8.46898L20.9865 8.60698L20.775 8.71648L20.49 8.83348L20.4 8.86348L20.1705 8.92348L19.9965 8.95948L19.761 8.98948C19.6742 8.99672 19.5871 9.00022 19.5 8.99998Z" fill="#78787C"/>
</svg>
