<svg width="32" height="32" viewBox="0 0 32 32" fill="none" xmlns="http://www.w3.org/2000/svg">
<path d="M20 6H5.5C4.83696 6 4.20107 6.26339 3.73223 6.73223C3.26339 7.20107 3 7.83696 3 8.5V23.5C3 24.163 3.26339 24.7989 3.73223 25.2678C4.20107 25.7366 4.83696 26 5.5 26H26.4206C27.0837 26 27.7196 25.7366 28.1884 25.2678C28.6572 24.7989 28.9206 24.163 28.9206 23.5V14.9375" stroke="#E0B954" stroke-width="2.5" stroke-linecap="round" stroke-linejoin="round"/>
<path d="M7 10L16 17L21.4375 12.8956" stroke="#E0B954" stroke-width="2" stroke-linecap="round" stroke-linejoin="round"/>
<path d="M26.9969 11C28.652 11 29.9937 9.65823 29.9937 8.0031C29.9937 6.34797 28.652 5.00623 26.9969 5.00623C25.3417 5.00623 24 6.34797 24 8.0031C24 9.65823 25.3417 11 26.9969 11Z" fill="#E0B954"/>
<path d="M27.0001 12C26.2095 12 25.4368 11.7656 24.7795 11.3264C24.1222 10.8872 23.6099 10.263 23.3074 9.53264C23.0049 8.80231 22.9258 7.99867 23.08 7.22335C23.2342 6.44803 23.6149 5.73586 24.1738 5.17688C24.7328 4.61791 25.445 4.23725 26.2203 4.08303C26.9956 3.92881 27.7993 4.00796 28.5296 4.31047C29.2599 4.61299 29.8841 5.12528 30.3233 5.78256C30.7625 6.43984 30.9969 7.2126 30.9969 8.0031C30.9961 9.06289 30.5747 10.079 29.8254 10.8284C29.076 11.5778 28.0598 11.9991 27.0001 12ZM27.0001 6.00623C26.6044 6.00561 26.2174 6.12238 25.8881 6.34177C25.5588 6.56115 25.3019 6.8733 25.1501 7.23869C24.9982 7.60409 24.9582 8.00632 25.035 8.39449C25.1118 8.78266 25.302 9.13932 25.5816 9.41933C25.8612 9.69935 26.2175 9.89014 26.6056 9.96757C26.9936 10.045 27.3959 10.0056 27.7616 9.85428C28.1272 9.703 28.4397 9.44666 28.6596 9.11769C28.8795 8.78873 28.9969 8.40192 28.9969 8.00623C28.9969 7.47634 28.7866 6.9681 28.4122 6.59312C28.0378 6.21813 27.5299 6.00706 27.0001 6.00623Z" fill="#E0B954"/>
</svg>
