<svg width="32" height="32" viewBox="0 0 32 32" fill="none" xmlns="http://www.w3.org/2000/svg">
<path d="M26.1596 29.68H5.82362C4.83163 29.68 4.01562 28.816 4.01562 27.744V4.23995C4.01562 3.18395 4.81563 2.30396 5.82362 2.30396H26.1596C27.1516 2.30396 27.9676 3.16795 27.9676 4.23995V27.744C27.9676 28.816 27.1676 29.68 26.1596 29.68ZM5.87163 27.712H26.1276V4.28796H5.87163V27.712Z" fill="#78787C"/>
<path d="M10.5124 6.44788L12.6564 11.8239H11.7604L11.2004 10.3839H8.81635L8.25635 11.8239H7.36035L9.50435 6.44788H10.5124ZM10.0324 7.15188H10.0004C9.95235 7.31188 9.90435 7.47188 9.84035 7.61588C9.82435 7.64788 9.55235 8.35188 9.02435 9.71188H10.9924C10.4644 8.35188 10.1924 7.64788 10.1764 7.61588C10.1764 7.59988 10.1604 7.56788 10.1444 7.51988C10.0804 7.31188 10.0324 7.18388 10.0324 7.15188ZM15.4243 9.79188H14.0644V11.8079H13.2164V6.43188H15.4884C16.6884 6.47988 17.3284 7.02388 17.3924 8.04788C17.3924 9.19988 16.7364 9.77588 15.4243 9.79188ZM15.3284 7.10388H14.0644V9.13588H15.3284C16.1284 9.11988 16.5443 8.76788 16.5603 8.09588C16.5124 7.45588 16.1124 7.11988 15.3284 7.10388ZM18.3523 11.8079V6.43188H19.1683V11.8079H18.3523ZM21.3763 23.1519H18.9763C18.4164 23.1519 17.9523 22.6879 17.9523 22.1279V14.2079C17.9523 13.6479 18.4164 13.1839 18.9763 13.1839H21.3763C21.9363 13.1839 22.4003 13.6479 22.4003 14.2079V22.1279C22.4003 22.6879 21.9363 23.1519 21.3763 23.1519Z" fill="#78787C"/>
<path d="M20.5916 17.136H19.7436C19.3116 17.136 18.9756 16.8 18.9756 16.368V15.52C18.9756 15.088 19.3116 14.752 19.7436 14.752H20.5916C21.0236 14.752 21.3596 15.088 21.3596 15.52V16.368C21.3596 16.8 21.0236 17.136 20.5916 17.136Z" fill="black"/>
<path d="M20.2238 19.616C20.0158 19.616 19.8398 19.44 19.8398 19.232V16.768C19.8398 16.56 20.0158 16.384 20.2238 16.384C20.4318 16.384 20.6078 16.56 20.6078 16.768V19.232C20.6078 19.44 20.4318 19.616 20.2238 19.616Z" fill="#020202"/>
</svg>
