<svg width="22" height="28" viewBox="0 0 22 28" fill="none" xmlns="http://www.w3.org/2000/svg">
<path d="M11 0.666748C13.2667 0.666748 15.369 0.928081 17.2563 1.36441C17.9207 1.51775 18.5123 1.68341 19.0247 1.84941C19.3153 1.94375 19.528 2.02041 19.6573 2.07175C20.9917 2.52841 22 4.00341 22 5.45708V17.4894C22 18.8457 21.2147 20.4744 20.1613 21.2741L13.048 26.6744C11.892 27.5521 10.1103 27.5541 8.952 26.6744L1.83867 21.2741C0.79 20.4777 0 18.8411 0 17.4894V5.45708C0 3.99375 1.00533 2.51275 2.34867 2.06941C2.47867 2.01808 2.68933 1.94208 2.97533 1.84941C3.55757 1.66254 4.14756 1.50073 4.74367 1.36441C6.631 0.927748 8.73333 0.666748 11 0.666748ZM11 2.66675C8.892 2.66675 6.93967 2.90941 5.19433 3.31308C4.58733 3.45308 4.051 3.60308 3.592 3.75208C3.434 3.80308 3.29767 3.85041 3.184 3.89208C3.11967 3.91541 3.07933 3.93108 3.064 3.93741C3.0385 3.9477 3.01259 3.95693 2.98633 3.96508C2.484 4.12241 2 4.82841 2 5.45708V17.4894C2 18.2237 2.504 19.2681 3.048 19.6811L10.1613 25.0814C10.6043 25.4181 11.3967 25.4171 11.8387 25.0814L18.952 19.6811C19.5 19.2647 20 18.2284 20 17.4894V5.45708C20 4.83708 19.5117 4.12875 19 3.96075L18.936 3.93741C18.8962 3.92173 18.8562 3.90662 18.816 3.89208C18.7023 3.85041 18.566 3.80308 18.408 3.75208C17.8804 3.58293 17.3458 3.43647 16.8057 3.31308C15.0603 2.90941 13.108 2.66675 11 2.66675ZM15.2923 8.62675C15.4798 8.43906 15.7341 8.33352 15.9993 8.33333C16.2645 8.33314 16.519 8.43833 16.7067 8.62575C16.8944 8.81317 16.9999 9.06747 17.0001 9.33271C17.0003 9.59795 16.8951 9.8524 16.7077 10.0401L10.051 16.7067C9.86376 16.8943 9.60975 16.9998 9.34475 17.0002C9.07975 17.0006 8.82543 16.8958 8.63767 16.7087L5.29433 13.3791C5.20009 13.2867 5.12506 13.1765 5.07359 13.055C5.02211 12.9335 4.99521 12.8029 4.99442 12.671C4.99364 12.539 5.01899 12.4081 5.06901 12.286C5.11904 12.1639 5.19274 12.0528 5.28588 11.9593C5.37903 11.8658 5.48976 11.7917 5.6117 11.7411C5.73363 11.6906 5.86436 11.6648 5.99635 11.665C6.12834 11.6653 6.25897 11.6916 6.38071 11.7426C6.50245 11.7936 6.61289 11.8682 6.70567 11.9621L9.34133 14.5867L15.2923 8.62675Z" fill="#78787C"/>
</svg>
