<svg width="24" height="28" viewBox="0 0 24 28" fill="none" xmlns="http://www.w3.org/2000/svg">
<path d="M23.1627 3.97959C22.8281 3.67576 22.3876 3.50963 21.9319 3.50963C21.8903 3.50963 21.8488 3.50963 21.8073 3.51251C21.7822 3.51523 21.492 3.5326 21.0387 3.5326C20.2872 3.5326 18.8201 3.48098 17.4303 3.15145C15.6359 2.72457 13.5647 0.747284 12.9623 0.35766C12.6586 0.159874 12.309 0.0625 11.9587 0.0625C11.6099 0.0625 11.2602 0.159874 10.9572 0.354782C10.8841 0.403453 8.71562 2.64712 6.59459 3.15145C5.20552 3.48098 3.71057 3.5326 2.95975 3.5326C2.50623 3.5326 2.21699 3.51523 2.18824 3.51251C2.14881 3.50963 2.10941 3.50963 2.06941 3.50963C1.61298 3.50963 1.17098 3.67576 0.835043 3.97959C0.470363 4.30912 0.262695 4.77044 0.262695 5.25469V9.61877C0.262695 25.7513 11.1772 27.8287 11.64 27.9117C11.746 27.9291 11.8527 27.9376 11.9595 27.9376C12.0655 27.9376 12.1737 27.9291 12.2782 27.9117C12.7417 27.8287 23.7365 25.7514 23.7365 9.61877V5.25469C23.7365 4.77044 23.528 4.30912 23.1627 3.97959ZM19.128 10.2205L11.5612 17.5418C11.5139 17.6191 11.4559 17.6965 11.3856 17.7624C11.1636 17.9774 10.8698 18.0805 10.5789 18.0748C10.2882 18.0805 9.99517 17.9774 9.77305 17.7624C9.70289 17.6965 9.64418 17.6191 9.59685 17.5418L5.55303 13.6276C5.12244 13.212 5.12244 12.5387 5.55303 12.1203C5.98362 11.705 6.68193 11.705 7.11248 12.1203L10.5789 15.4759L17.5693 8.7134C17.9999 8.29791 18.6976 8.29791 19.128 8.7134C19.5586 9.12871 19.5586 9.80501 19.128 10.2205Z" fill="#E0B954"/>
</svg>
