<svg width="26" height="28" viewBox="0 0 26 28" fill="none" xmlns="http://www.w3.org/2000/svg">
<path d="M4.80772 24.485H21.1895C21.7526 24.485 22.209 24.0286 22.209 23.4655V9.50145C22.209 9.2332 22.1033 8.97576 21.9148 8.78492L17.0083 3.81824L18.0056 2.83301L19.0029 1.84778L23.9094 6.81446C24.6164 7.5301 25.0128 8.49551 25.0128 9.50145V23.4655C25.0128 25.5771 23.301 27.2888 21.1895 27.2888H4.80772C2.69614 27.2888 0.984375 25.5771 0.984375 23.4655V4.53477C0.984375 2.42319 2.69614 0.711426 4.80772 0.711426H16.2829C17.305 0.711426 18.2846 1.12066 19.0029 1.84778L18.0056 2.83301L17.0083 3.81824C16.8167 3.62434 16.5555 3.51521 16.2829 3.51521H4.80772C4.24463 3.51521 3.78816 3.97168 3.78816 4.53477V23.4655C3.78816 24.0286 4.24463 24.485 4.80772 24.485Z" fill="#78787C"/>
<path d="M5.51464 12.9534C5.51464 12.2495 6.08523 11.6789 6.78909 11.6789H19.2094C19.9133 11.6789 20.4839 12.2495 20.4839 12.9534C20.4839 13.6572 19.9133 14.2278 19.2094 14.2278H6.78909C6.08523 14.2278 5.51464 13.6572 5.51464 12.9534Z" fill="#78787C"/>
<path d="M5.51464 17.3354C5.51464 16.6315 6.08523 16.0609 6.78909 16.0609H13.6076C14.3115 16.0609 14.8821 16.6315 14.8821 17.3354C14.8821 18.0392 14.3115 18.6098 13.6076 18.6098H6.78909C6.08523 18.6098 5.51464 18.0392 5.51464 17.3354Z" fill="#78787C"/>
</svg>
