<svg width="16" height="16" viewBox="0 0 16 16" fill="none" xmlns="http://www.w3.org/2000/svg">
<path d="M14.0556 3.06789L13.4562 3.05856C13.4418 3.05856 12.098 3.03058 10.71 2.49135C9.28654 1.93769 8.36915 1.30182 8.36066 1.29587L7.99953 1.04492L7.63916 1.29587C7.63069 1.3018 6.71248 1.93769 5.28979 2.49135C3.9027 3.03141 2.55803 3.05855 2.54618 3.05855L1.94336 3.06789V8.91547C1.94336 11.8515 5.88242 14.9555 8.00032 14.9555C10.1191 14.9555 14.0582 11.8515 14.0582 8.91547L14.0556 3.06789ZM8.00034 14.0873C6.24107 14.0873 2.81155 11.2953 2.81155 8.91543V3.91486C3.30755 3.88097 4.43178 3.75718 5.60433 3.30102C6.80573 2.83301 7.67901 2.30397 8.00119 2.09709C8.3471 2.32178 9.19494 2.83301 10.3955 3.30102C11.5723 3.75803 12.6991 3.88097 13.1883 3.91486L13.1899 8.91543C13.19 11.2953 9.7596 14.0873 8.00034 14.0873Z" fill="#E0B954"/>
<path d="M11.6125 8.56947L9.29031 10.8892L8.31705 9.78529C8.15763 9.60554 7.88376 9.58856 7.70404 9.74631C7.52346 9.90569 7.50651 10.1795 7.66589 10.3593L8.94443 11.81C9.02407 11.8998 9.13684 11.9524 9.25641 11.9558C9.26151 11.9566 9.26575 11.9566 9.27003 11.9566C9.38527 11.9566 9.49554 11.9117 9.57691 11.8303L12.2264 9.18504C12.396 9.0155 12.396 8.74078 12.2273 8.57038C12.0576 8.40071 11.7821 8.40163 11.6125 8.56947Z" fill="#E0B954"/>
<path d="M9.23818 9.3567C9.43489 9.1541 9.67567 8.94212 9.8783 8.77426C9.58751 8.46479 9.23392 8.21637 8.83968 8.04429C9.31449 7.67803 9.62563 7.10827 9.62563 6.46388C9.62563 5.35746 8.72523 4.45703 7.61879 4.45703C6.51238 4.45703 5.61195 5.35743 5.61195 6.46388C5.61195 7.10656 5.9214 7.67378 6.39366 8.04091C5.28725 8.5174 4.50977 9.61785 4.50977 10.8973C4.50977 11.1372 4.70394 11.3314 4.94387 11.3314C5.18379 11.3314 5.37794 11.1372 5.37794 10.8973C5.37794 9.66195 6.38262 8.65646 7.61878 8.65646C8.25639 8.65644 8.82954 8.92686 9.23818 9.3567ZM7.61883 5.32524C8.24621 5.32524 8.75749 5.8365 8.75749 6.46388C8.75749 7.09128 8.24618 7.6017 7.61883 7.6017C6.99144 7.6017 6.48017 7.09128 6.48017 6.46388C6.48017 5.83648 6.99144 5.32524 7.61883 5.32524Z" fill="#E0B954"/>
</svg>
