<svg width="32" height="32" viewBox="0 0 32 32" fill="none" xmlns="http://www.w3.org/2000/svg">
<path d="M5.25045 29.3333C3.08992 29.3333 1.33301 27.5556 1.33301 25.3694V7.96396C1.33301 5.77778 3.08992 4 5.25045 4H26.7489C28.9094 4 30.6663 5.77778 30.6663 7.96396V25.3694C30.6663 27.5556 28.9094 29.3333 26.7489 29.3333H5.25045ZM5.25045 6.12613C4.25328 6.12613 3.43418 6.94895 3.43418 7.96396V25.3694C3.43418 26.3784 4.24735 27.2072 5.25045 27.2072H26.7489C27.7461 27.2072 28.5652 26.3844 28.5652 25.3694V7.96396C28.5652 6.95495 27.752 6.12613 26.7489 6.12613H5.25045ZM25.3184 22.8048C24.7368 22.8048 24.2679 22.3243 24.2679 21.7417C24.2679 19.9279 22.8137 18.4565 21.0211 18.4565C19.2286 18.4565 17.7744 19.9279 17.7744 21.7417C17.7744 22.3303 17.2996 22.8048 16.7238 22.8048C16.1421 22.8048 15.6732 22.3243 15.6732 21.7417C15.6732 19.8859 16.617 18.1742 18.1721 17.1832C17.4895 16.4505 17.1096 15.4895 17.1096 14.4865C17.1096 12.3003 18.8665 10.5225 21.0271 10.5225C23.1876 10.5225 24.9445 12.3003 24.9445 14.4865C24.9445 15.4895 24.5587 16.4444 23.882 17.1832C25.4312 18.1742 26.3809 19.8799 26.3809 21.7417C26.375 22.3243 25.9001 22.8048 25.3184 22.8048ZM21.0211 12.6547C20.024 12.6547 19.2049 13.4775 19.2049 14.4925C19.2049 15.5075 20.018 16.3303 21.0211 16.3303C22.0242 16.3303 22.8374 15.5075 22.8374 14.4925C22.8374 13.4775 22.0183 12.6547 21.0211 12.6547Z" fill="#78787C"/>
<path d="M13.5783 12.9333H7.75667C7.203 12.9333 6.75684 12.4871 6.75684 11.9334C6.75684 11.3798 7.203 10.9336 7.75667 10.9336H13.5783C14.1319 10.9336 14.5781 11.3798 14.5781 11.9334C14.5781 12.4871 14.1319 12.9333 13.5783 12.9333Z" fill="#78787C"/>
<path d="M13.5783 17.497H7.75667C7.203 17.497 6.75684 17.0508 6.75684 16.4971C6.75684 15.9435 7.203 15.4973 7.75667 15.4973H13.5783C14.1319 15.4973 14.5781 15.9435 14.5781 16.4971C14.5781 17.0508 14.1319 17.497 13.5783 17.497Z" fill="#78787C"/>
<path d="M13.5783 22.0124H7.75667C7.203 22.0124 6.75684 21.5662 6.75684 21.0125C6.75684 20.4589 7.203 20.0127 7.75667 20.0127H13.5783C14.1319 20.0127 14.5781 20.4589 14.5781 21.0125C14.5781 21.5662 14.1319 22.0124 13.5783 22.0124Z" fill="#78787C"/>
</svg>
