<svg width="16" height="16" viewBox="0 0 16 16" fill="none" xmlns="http://www.w3.org/2000/svg">
<path d="M13.0821 4.17629H10.2968L9.14697 2.24566C8.91635 1.85754 8.49604 1.62457 8.02947 1.62207H8.0215C7.55494 1.62207 7.13729 1.85223 6.90135 2.23535L5.71869 4.17629H2.97166C1.90041 4.17629 1.02979 5.00707 1.02979 6.02926V12.5407C1.02979 13.5629 1.90041 14.3936 2.97166 14.3936H13.0793C14.1506 14.3936 15.021 13.5629 15.021 12.5407V6.02926C15.0238 5.00707 14.1532 4.17629 13.0821 4.17629ZM2.97182 13.1216C2.60229 13.1216 2.30166 12.8608 2.30166 12.5404V6.02941C2.30166 5.70895 2.60229 5.44848 2.97182 5.44848H6.43307L7.9876 2.89707L8.05838 2.90051L9.574 5.44848H13.0821C13.346 5.44848 13.5113 5.57473 13.5865 5.64988C13.6617 5.72504 13.7499 5.8502 13.7499 6.02629V12.5404C13.7499 12.8608 13.4493 13.1216 13.0798 13.1216H2.97182Z" fill="#E0B954"/>
<path d="M11.5898 7.34586H4.88137C4.51262 7.34586 4.21387 7.63055 4.21387 7.9818C4.21387 8.33305 4.51262 8.61773 4.88137 8.61773H11.5898C11.9586 8.61773 12.2573 8.33305 12.2573 7.9818C12.2573 7.63055 11.9586 7.34586 11.5898 7.34586ZM9.02871 10.5257H4.88137C4.51262 10.5257 4.21387 10.8104 4.21387 11.1616C4.21387 11.5129 4.51262 11.797 4.88137 11.797H9.02871C9.39746 11.797 9.69621 11.5123 9.69621 11.161C9.69621 10.8098 9.39746 10.5257 9.02871 10.5257ZM5.48152 4.16602H10.5693V5.43789H5.48152V4.16602Z" fill="#E0B954"/>
<path d="M11.5908 7.34399H4.88234C4.51359 7.34399 4.21484 7.62868 4.21484 7.97993C4.21484 8.33118 4.51359 8.61587 4.88234 8.61587H11.5908C11.9595 8.61587 12.2583 8.33118 12.2583 7.97993C12.2583 7.62868 11.9595 7.34399 11.5908 7.34399ZM9.02969 10.5238H4.88234C4.51359 10.5238 4.21484 10.8085 4.21484 11.1598C4.21484 11.511 4.51359 11.7951 4.88234 11.7951H9.02969C9.39844 11.7951 9.69719 11.5104 9.69719 11.1592C9.69719 10.8079 9.39844 10.5238 9.02969 10.5238Z" fill="#E0B954"/>
</svg>
