<svg width="24" height="24" viewBox="0 0 24 24" fill="none" xmlns="http://www.w3.org/2000/svg">
<path d="M19.6232 6.26443H15.4452L13.7205 3.3685C13.3745 2.78631 12.7441 2.43686 12.0442 2.43311H12.0323C11.3324 2.43311 10.7059 2.77834 10.352 3.35303L8.57804 6.26443H4.45749C2.85062 6.26443 1.51306 7.33789 1.51306 8.87117L1.54468 18.811C1.54468 20.3443 2.64884 21.5909 4.25572 21.5909L19.619 21.5905C21.2259 21.5905 22.5316 20.3443 22.5316 18.811L22.4999 8.87117C22.5042 7.33789 21.2298 6.26443 19.6232 6.26443ZM4.25595 19.6829C3.70166 19.6829 3.25072 19.2917 3.25072 18.811L3.2191 8.87187C3.2191 8.39117 3.67004 8.00047 4.22434 8.00047L9.61798 8L11.9814 4.34561L12.0876 4.35076L14.3294 8H19.5916C19.9874 8 20.2354 8.18937 20.3481 8.30211C20.4609 8.41484 20.5933 8.60258 20.5933 8.86672L20.6249 18.8105C20.6249 19.2912 20.174 19.6824 19.6197 19.6824L4.25595 19.6829Z" fill="#78787C"/>
<path d="M17.3847 11.0187H7.32205C6.76893 11.0187 6.3208 11.4457 6.3208 11.9726C6.3208 12.4994 6.76893 12.9265 7.32205 12.9265H17.3847C17.9378 12.9265 18.386 12.4994 18.386 11.9726C18.386 11.4457 17.9378 11.0187 17.3847 11.0187ZM13.5431 15.7884H7.32205C6.76893 15.7884 6.3208 16.2155 6.3208 16.7423C6.3208 17.2692 6.76893 17.6953 7.32205 17.6953H13.5431C14.0962 17.6953 14.5443 17.2683 14.5443 16.7414C14.5443 16.2145 14.0962 15.7884 13.5431 15.7884ZM8.22229 6.2489H15.854V8H8.22229V6.2489Z" fill="#78787C"/>
<path d="M17.3862 11.0159H7.32352C6.77039 11.0159 6.32227 11.4429 6.32227 11.9698C6.32227 12.4966 6.77039 12.9237 7.32352 12.9237H17.3862C17.9393 12.9237 18.3874 12.4966 18.3874 11.9698C18.3874 11.4429 17.9393 11.0159 17.3862 11.0159ZM13.5445 15.7856H7.32352C6.77039 15.7856 6.32227 16.2127 6.32227 16.7395C6.32227 17.2664 6.77039 17.6925 7.32352 17.6925H13.5445C14.0977 17.6925 14.5458 17.2655 14.5458 16.7386C14.5458 16.2117 14.0977 15.7856 13.5445 15.7856Z" fill="#78787C"/>
</svg>
