<svg width="18" height="20" viewBox="0 0 18 20" fill="none" xmlns="http://www.w3.org/2000/svg">
<path d="M16 18.5H16.5V18V2V1.5H16H2H1.5V2V18V18.5H2H16ZM17 19.5H1C0.867391 19.5 0.740214 19.4473 0.646447 19.3536C0.552679 19.2598 0.5 19.1326 0.5 19V1C0.5 0.867392 0.552678 0.740215 0.646447 0.646447C0.740215 0.552678 0.867392 0.5 1 0.5H17C17.1326 0.5 17.2598 0.552679 17.3536 0.646447C17.4473 0.740214 17.5 0.867391 17.5 1V19C17.5 19.1326 17.4473 19.2598 17.3536 19.3536C17.2598 19.4473 17.1326 19.5 17 19.5ZM5.5 5.5H12.5V6.5H5.5V5.5ZM5.5 9.5H12.5V10.5H5.5V9.5ZM5.5 13.5H9.5V14.5H5.5V13.5Z" fill="#78787C" stroke="#78787C"/>
</svg>
