<svg width="24" height="24" viewBox="0 0 24 24" fill="none" xmlns="http://www.w3.org/2000/svg">
<path fill-rule="evenodd" clip-rule="evenodd" d="M12.9601 4.7992L20.7825 18.3479C20.982 18.6935 20.7326 19.1254 20.3337 19.1254H4.68891C4.28994 19.1254 4.04058 18.6935 4.24007 18.3479L6.31482 14.7544C9.13177 15.8039 12.5271 16.5119 15.0441 16.7915C15.613 16.8548 16.1255 16.4448 16.1887 15.8758C16.252 15.3068 15.842 14.7943 15.273 14.7311C12.9902 14.4775 9.93218 13.8462 7.36726 12.9315L12.0624 4.7992C12.2619 4.45368 12.7606 4.45368 12.9601 4.7992ZM5.43316 12.1352L6.74588 9.86153C5.83742 9.59893 4.68466 9.42584 3.7774 9.48082C3.2816 9.51086 2.96921 9.60323 2.81342 9.69404C2.73373 9.74049 2.74269 9.74672 2.74847 9.75075C2.74973 9.75163 2.75085 9.7524 2.75085 9.75346C2.75085 10.0625 2.96285 10.5339 3.74855 11.1365C4.19647 11.48 4.76713 11.8151 5.43316 12.1352ZM4.39399 13.9351C3.68343 13.5852 3.03401 13.2011 2.48694 12.7815C1.52652 12.045 0.677734 11.0376 0.677734 9.75346C0.677734 8.88754 1.14842 8.26495 1.76946 7.90296C2.33185 7.57517 3.01966 7.44982 3.65201 7.4115C4.93562 7.33372 6.44881 7.59124 7.56242 7.94271C7.64516 7.96882 7.72231 8.00435 7.79307 8.04774L10.2671 3.76265C11.2645 2.03505 13.7581 2.03505 14.7555 3.76264L22.5779 17.3114C23.5753 19.039 22.3285 21.1985 20.3337 21.1985H4.68891C2.69406 21.1985 1.44728 19.039 2.4447 17.3114L4.39399 13.9351Z" fill="#78787C"/>
</svg>
